<mxfile host="app.diagrams.net" agent="Mozilla/5.0 (Windows NT 10.0; Win64; x64) AppleWebKit/537.36 (KHTML, like Gecko) Chrome/131.0.0.0 Safari/537.36" version="25.0.3">
  <diagram id="C5RBs43oDa-KdzZeNtuy" name="Page-1">
    <mxGraphModel dx="880" dy="528" grid="1" gridSize="10" guides="1" tooltips="1" connect="1" arrows="1" fold="1" page="1" pageScale="1" pageWidth="827" pageHeight="1169" math="0" shadow="0">
      <root>
        <mxCell id="WIyWlLk6GJQsqaUBKTNV-0" />
        <mxCell id="WIyWlLk6GJQsqaUBKTNV-1" parent="WIyWlLk6GJQsqaUBKTNV-0" />
        <mxCell id="kKCN4HIxxRUxrJkBdrej-3" value="" style="edgeStyle=orthogonalEdgeStyle;rounded=0;orthogonalLoop=1;jettySize=auto;html=1;" edge="1" parent="WIyWlLk6GJQsqaUBKTNV-1" source="kKCN4HIxxRUxrJkBdrej-1" target="kKCN4HIxxRUxrJkBdrej-2">
          <mxGeometry relative="1" as="geometry" />
        </mxCell>
        <mxCell id="kKCN4HIxxRUxrJkBdrej-1" value="INICIO" style="ellipse;whiteSpace=wrap;html=1;aspect=fixed;strokeColor=#666600;" vertex="1" parent="WIyWlLk6GJQsqaUBKTNV-1">
          <mxGeometry x="374" y="40" width="80" height="80" as="geometry" />
        </mxCell>
        <mxCell id="kKCN4HIxxRUxrJkBdrej-5" value="" style="edgeStyle=orthogonalEdgeStyle;rounded=0;orthogonalLoop=1;jettySize=auto;html=1;" edge="1" parent="WIyWlLk6GJQsqaUBKTNV-1" source="kKCN4HIxxRUxrJkBdrej-2" target="kKCN4HIxxRUxrJkBdrej-4">
          <mxGeometry relative="1" as="geometry" />
        </mxCell>
        <mxCell id="kKCN4HIxxRUxrJkBdrej-2" value="&lt;span style=&quot;color: rgb(108, 110, 119);&quot;&gt;Mostrar mensaje: &quot;Por favor ingrese una palabra: &quot;&lt;/span&gt;" style="shape=parallelogram;perimeter=parallelogramPerimeter;whiteSpace=wrap;html=1;fixedSize=1;verticalAlign=middle;" vertex="1" parent="WIyWlLk6GJQsqaUBKTNV-1">
          <mxGeometry x="354" y="160" width="120" height="60" as="geometry" />
        </mxCell>
        <mxCell id="kKCN4HIxxRUxrJkBdrej-7" value="" style="edgeStyle=orthogonalEdgeStyle;rounded=0;orthogonalLoop=1;jettySize=auto;html=1;" edge="1" parent="WIyWlLk6GJQsqaUBKTNV-1" source="kKCN4HIxxRUxrJkBdrej-4" target="kKCN4HIxxRUxrJkBdrej-6">
          <mxGeometry relative="1" as="geometry" />
        </mxCell>
        <mxCell id="kKCN4HIxxRUxrJkBdrej-4" value="Contar la cantidad de letras." style="rounded=1;whiteSpace=wrap;html=1;" vertex="1" parent="WIyWlLk6GJQsqaUBKTNV-1">
          <mxGeometry x="354" y="260" width="120" height="60" as="geometry" />
        </mxCell>
        <mxCell id="kKCN4HIxxRUxrJkBdrej-9" value="" style="edgeStyle=orthogonalEdgeStyle;rounded=0;orthogonalLoop=1;jettySize=auto;html=1;" edge="1" parent="WIyWlLk6GJQsqaUBKTNV-1" source="kKCN4HIxxRUxrJkBdrej-6" target="kKCN4HIxxRUxrJkBdrej-8">
          <mxGeometry relative="1" as="geometry" />
        </mxCell>
        <mxCell id="kKCN4HIxxRUxrJkBdrej-6" value="&lt;span style=&quot;color: rgb(108, 110, 119);&quot;&gt;Mostrar mensaje: &quot;Por favor ingrese una palabra: &quot;&lt;/span&gt;" style="shape=parallelogram;perimeter=parallelogramPerimeter;whiteSpace=wrap;html=1;fixedSize=1;rounded=1;" vertex="1" parent="WIyWlLk6GJQsqaUBKTNV-1">
          <mxGeometry x="354" y="360" width="120" height="60" as="geometry" />
        </mxCell>
        <mxCell id="kKCN4HIxxRUxrJkBdrej-8" value="FIN" style="ellipse;whiteSpace=wrap;html=1;aspect=fixed;fillStyle=solid;fillColor=#FFF700;" vertex="1" parent="WIyWlLk6GJQsqaUBKTNV-1">
          <mxGeometry x="374" y="460" width="80" height="80" as="geometry" />
        </mxCell>
      </root>
    </mxGraphModel>
  </diagram>
</mxfile>
